<?xml version="1.0" encoding="utf-8" standalone="no"?>
<!DOCTYPE svg PUBLIC "-//W3C//DTD SVG 1.1//EN"
  "http://www.w3.org/Graphics/SVG/1.1/DTD/svg11.dtd">
<svg xmlns:xlink="http://www.w3.org/1999/xlink" width="576pt" height="504pt" viewBox="0 0 576 504" xmlns="http://www.w3.org/2000/svg" version="1.1">
 <metadata>
  <rdf:RDF xmlns:dc="http://purl.org/dc/elements/1.1/" xmlns:cc="http://creativecommons.org/ns#" xmlns:rdf="http://www.w3.org/1999/02/22-rdf-syntax-ns#">
   <cc:Work>
    <dc:type rdf:resource="http://purl.org/dc/dcmitype/StillImage"/>
    <dc:date>2022-06-10T09:41:06.144062</dc:date>
    <dc:format>image/svg+xml</dc:format>
    <dc:creator>
     <cc:Agent>
      <dc:title>Matplotlib v3.5.1, https://matplotlib.org/</dc:title>
     </cc:Agent>
    </dc:creator>
   </cc:Work>
  </rdf:RDF>
 </metadata>
 <defs>
  <style type="text/css">*{stroke-linejoin: round; stroke-linecap: butt}</style>
 </defs>
 <g id="figure_1">
  <g id="patch_1">
   <path d="M 0 504 
L 576 504 
L 576 0 
L 0 0 
z
" style="fill: #ffffff"/>
  </g>
  <g id="axes_1">
   <g id="patch_2">
    <path d="M 72 448.56 
L 518.4 448.56 
L 518.4 60.48 
L 72 60.48 
z
" style="fill: #ffffff"/>
   </g>
   <g id="line2d_1">
    <path d="M 358.199594 136.92 
L 358.199594 78.12 
" clip-path="url(#p627de83d41)" style="fill: none; stroke-dasharray: 1.85,0.8; stroke-dashoffset: 0; stroke: #bbbbbb; stroke-width: 0.5"/>
   </g>
   <g id="line2d_2">
    <path d="M 413.639236 169.586667 
L 413.639236 110.786667 
" clip-path="url(#p627de83d41)" style="fill: none; stroke-dasharray: 1.85,0.8; stroke-dashoffset: 0; stroke: #bbbbbb; stroke-width: 0.5"/>
   </g>
   <g id="line2d_3">
    <path d="M 448.919008 202.253333 
L 448.919008 143.453333 
" clip-path="url(#p627de83d41)" style="fill: none; stroke-dasharray: 1.85,0.8; stroke-dashoffset: 0; stroke: #bbbbbb; stroke-width: 0.5"/>
   </g>
   <g id="line2d_4">
    <path d="M 416.15922 234.92 
L 416.15922 176.12 
" clip-path="url(#p627de83d41)" style="fill: none; stroke-dasharray: 1.85,0.8; stroke-dashoffset: 0; stroke: #bbbbbb; stroke-width: 0.5"/>
   </g>
   <g id="line2d_5">
    <path d="M 383.399431 267.586667 
L 383.399431 208.786667 
" clip-path="url(#p627de83d41)" style="fill: none; stroke-dasharray: 1.85,0.8; stroke-dashoffset: 0; stroke: #bbbbbb; stroke-width: 0.5"/>
   </g>
   <g id="line2d_6">
    <path d="M 413.639236 300.253333 
L 413.639236 241.453333 
" clip-path="url(#p627de83d41)" style="fill: none; stroke-dasharray: 1.85,0.8; stroke-dashoffset: 0; stroke: #bbbbbb; stroke-width: 0.5"/>
   </g>
   <g id="line2d_7">
    <path d="M 441.359057 332.92 
L 441.359057 274.12 
" clip-path="url(#p627de83d41)" style="fill: none; stroke-dasharray: 1.85,0.8; stroke-dashoffset: 0; stroke: #bbbbbb; stroke-width: 0.5"/>
   </g>
   <g id="line2d_8">
    <path d="M 72 417.853333 
L 518.4 417.853333 
" clip-path="url(#p627de83d41)" style="fill: none; stroke-dasharray: 0.5,2.5; stroke-dashoffset: 0; stroke: #cccccc; stroke-width: 0.5"/>
   </g>
   <g id="line2d_9">
    <path d="M 72 385.186667 
L 518.4 385.186667 
" clip-path="url(#p627de83d41)" style="fill: none; stroke-dasharray: 0.5,2.5; stroke-dashoffset: 0; stroke: #cccccc; stroke-width: 0.5"/>
   </g>
   <g id="line2d_10">
    <path d="M 72 352.52 
L 518.4 352.52 
" clip-path="url(#p627de83d41)" style="fill: none; stroke-dasharray: 0.5,2.5; stroke-dashoffset: 0; stroke: #cccccc; stroke-width: 0.5"/>
   </g>
   <g id="line2d_11">
    <path d="M 72 319.853333 
L 518.4 319.853333 
" clip-path="url(#p627de83d41)" style="fill: none; stroke-dasharray: 0.5,2.5; stroke-dashoffset: 0; stroke: #cccccc; stroke-width: 0.5"/>
   </g>
   <g id="line2d_12">
    <path d="M 72 287.186667 
L 518.4 287.186667 
" clip-path="url(#p627de83d41)" style="fill: none; stroke-dasharray: 0.5,2.5; stroke-dashoffset: 0; stroke: #cccccc; stroke-width: 0.5"/>
   </g>
   <g id="line2d_13">
    <path d="M 72 254.52 
L 518.4 254.52 
" clip-path="url(#p627de83d41)" style="fill: none; stroke-dasharray: 0.5,2.5; stroke-dashoffset: 0; stroke: #cccccc; stroke-width: 0.5"/>
   </g>
   <g id="line2d_14">
    <path d="M 72 221.853333 
L 518.4 221.853333 
" clip-path="url(#p627de83d41)" style="fill: none; stroke-dasharray: 0.5,2.5; stroke-dashoffset: 0; stroke: #cccccc; stroke-width: 0.5"/>
   </g>
   <g id="line2d_15">
    <path d="M 72 189.186667 
L 518.4 189.186667 
" clip-path="url(#p627de83d41)" style="fill: none; stroke-dasharray: 0.5,2.5; stroke-dashoffset: 0; stroke: #cccccc; stroke-width: 0.5"/>
   </g>
   <g id="line2d_16">
    <path d="M 72 156.52 
L 518.4 156.52 
" clip-path="url(#p627de83d41)" style="fill: none; stroke-dasharray: 0.5,2.5; stroke-dashoffset: 0; stroke: #cccccc; stroke-width: 0.5"/>
   </g>
   <g id="line2d_17">
    <path d="M 72 123.853333 
L 518.4 123.853333 
" clip-path="url(#p627de83d41)" style="fill: none; stroke-dasharray: 0.5,2.5; stroke-dashoffset: 0; stroke: #cccccc; stroke-width: 0.5"/>
   </g>
   <g id="line2d_18">
    <path d="M 72 91.186667 
L 518.4 91.186667 
" clip-path="url(#p627de83d41)" style="fill: none; stroke-dasharray: 0.5,2.5; stroke-dashoffset: 0; stroke: #cccccc; stroke-width: 0.5"/>
   </g>
   <g id="line2d_19">
    <path d="M 446.399025 448.56 
L 446.399025 413.28 
" clip-path="url(#p627de83d41)" style="fill: none; stroke-dasharray: 1.85,0.8; stroke-dashoffset: 0; stroke: #bbbbbb; stroke-width: 0.5"/>
   </g>
   <g id="line2d_20">
    <path d="M 128.881073 448.56 
L 128.881073 60.48 
" clip-path="url(#p627de83d41)" style="fill: none; stroke-dasharray: 1.85,0.8; stroke-dashoffset: 0; stroke: #bbbbbb; stroke-width: 0.5"/>
   </g>
   <g id="patch_3">
    <path d="M 412.832841 202.253333 
L 485.509172 202.253333 
L 485.509172 176.12 
L 412.832841 176.12 
L 412.832841 202.253333 
z
" clip-path="url(#p627de83d41)" style="fill: none; opacity: 0"/>
   </g>
   <g id="patch_4">
    <path d="M 380.073052 234.92 
L 452.749384 234.92 
L 452.749384 208.786667 
L 380.073052 208.786667 
L 380.073052 234.92 
z
" clip-path="url(#p627de83d41)" style="fill: none; opacity: 0"/>
   </g>
   <g id="patch_5">
    <path d="M 440.552662 365.586667 
L 498.109091 365.586667 
L 498.109091 339.453333 
L 440.552662 339.453333 
L 440.552662 365.586667 
z
" clip-path="url(#p627de83d41)" style="fill: none; opacity: 0"/>
   </g>
   <g id="patch_6">
    <path d="M 443.072646 430.92 
L 482.989188 430.92 
L 482.989188 404.786667 
L 443.072646 404.786667 
L 443.072646 430.92 
z
" clip-path="url(#p627de83d41)" style="fill: none; opacity: 0"/>
   </g>
   <g id="patch_7">
    <path d="M 361.525972 104.253333 
L 92.290909 104.253333 
L 92.290909 78.12 
L 361.525972 78.12 
L 361.525972 104.253333 
z
" clip-path="url(#p627de83d41)" style="fill: none; opacity: 0"/>
   </g>
   <g id="patch_8">
    <path d="M 416.965614 136.92 
L 321.60943 136.92 
L 321.60943 110.786667 
L 416.965614 110.786667 
L 416.965614 136.92 
z
" clip-path="url(#p627de83d41)" style="fill: none; opacity: 0"/>
   </g>
   <g id="patch_9">
    <path d="M 452.245387 169.586667 
L 377.049072 169.586667 
L 377.049072 143.453333 
L 452.245387 143.453333 
L 452.245387 169.586667 
z
" clip-path="url(#p627de83d41)" style="fill: none; opacity: 0"/>
   </g>
   <g id="patch_10">
    <path d="M 416.965614 267.586667 
L 346.809267 267.586667 
L 346.809267 241.453333 
L 416.965614 241.453333 
L 416.965614 267.586667 
z
" clip-path="url(#p627de83d41)" style="fill: none; opacity: 0"/>
   </g>
   <g id="patch_11">
    <path d="M 444.685436 300.253333 
L 377.049072 300.253333 
L 377.049072 274.12 
L 444.685436 274.12 
L 444.685436 300.253333 
z
" clip-path="url(#p627de83d41)" style="fill: none; opacity: 0"/>
   </g>
   <g id="patch_12">
    <path d="M 464.845306 332.92 
L 404.768893 332.92 
L 404.768893 306.786667 
L 464.845306 306.786667 
L 464.845306 332.92 
z
" clip-path="url(#p627de83d41)" style="fill: none; opacity: 0"/>
   </g>
   <g id="patch_13">
    <path d="M 449.725403 398.253333 
L 407.288877 398.253333 
L 407.288877 372.12 
L 449.725403 372.12 
L 449.725403 398.253333 
z
" clip-path="url(#p627de83d41)" style="fill: none; opacity: 0"/>
   </g>
   <g id="patch_14">
    <path d="M 448.919008 189.186667 
L 443.159008 202.253333 
L 443.159008 202.253333 
L 416.15922 202.253333 
L 416.15922 176.12 
L 443.159008 176.12 
L 443.159008 176.12 
z
" clip-path="url(#p627de83d41)" style="fill: #ff0051; stroke: #ff0051; stroke-linejoin: miter"/>
   </g>
   <g id="patch_15">
    <path d="M 416.15922 221.853333 
L 410.39922 234.92 
L 410.39922 234.92 
L 383.399431 234.92 
L 383.399431 208.786667 
L 410.39922 208.786667 
L 410.39922 208.786667 
z
" clip-path="url(#p627de83d41)" style="fill: #ff0051; stroke: #ff0051; stroke-linejoin: miter"/>
   </g>
   <g id="patch_16">
    <path d="M 461.518927 352.52 
L 455.758927 365.586667 
L 455.758927 365.586667 
L 443.879041 365.586667 
L 443.879041 339.453333 
L 455.758927 339.453333 
L 455.758927 339.453333 
z
" clip-path="url(#p627de83d41)" style="fill: #ff0051; stroke: #ff0051; stroke-linejoin: miter"/>
   </g>
   <g id="patch_17">
    <path d="M 446.399554 417.853333 
L 446.399554 430.92 
L 446.399554 430.92 
L 446.399025 430.92 
L 446.399025 404.786667 
L 446.399554 404.786667 
L 446.399554 404.786667 
z
" clip-path="url(#p627de83d41)" style="fill: #ff0051; stroke: #ff0051; stroke-linejoin: miter"/>
   </g>
   <g id="patch_18">
    <path d="M 128.881073 91.186667 
L 134.641073 78.12 
L 134.641073 78.12 
L 358.199594 78.12 
L 358.199594 104.253333 
L 134.641073 104.253333 
L 134.641073 104.253333 
z
" clip-path="url(#p627de83d41)" style="fill: #008bfb; stroke: #008bfb; stroke-linejoin: miter"/>
   </g>
   <g id="patch_19">
    <path d="M 358.199594 123.853333 
L 363.959594 110.786667 
L 363.959594 110.786667 
L 413.639236 110.786667 
L 413.639236 136.92 
L 363.959594 136.92 
L 363.959594 136.92 
z
" clip-path="url(#p627de83d41)" style="fill: #008bfb; stroke: #008bfb; stroke-linejoin: miter"/>
   </g>
   <g id="patch_20">
    <path d="M 413.639236 156.52 
L 419.399236 143.453333 
L 419.399236 143.453333 
L 448.919008 143.453333 
L 448.919008 169.586667 
L 419.399236 169.586667 
L 419.399236 169.586667 
z
" clip-path="url(#p627de83d41)" style="fill: #008bfb; stroke: #008bfb; stroke-linejoin: miter"/>
   </g>
   <g id="patch_21">
    <path d="M 383.399431 254.52 
L 389.159431 241.453333 
L 389.159431 241.453333 
L 413.639236 241.453333 
L 413.639236 267.586667 
L 389.159431 267.586667 
L 389.159431 267.586667 
z
" clip-path="url(#p627de83d41)" style="fill: #008bfb; stroke: #008bfb; stroke-linejoin: miter"/>
   </g>
   <g id="patch_22">
    <path d="M 413.639236 287.186667 
L 419.399236 274.12 
L 419.399236 274.12 
L 441.359057 274.12 
L 441.359057 300.253333 
L 419.399236 300.253333 
L 419.399236 300.253333 
z
" clip-path="url(#p627de83d41)" style="fill: #008bfb; stroke: #008bfb; stroke-linejoin: miter"/>
   </g>
   <g id="patch_23">
    <path d="M 441.359057 319.853333 
L 447.119057 306.786667 
L 447.119057 306.786667 
L 461.518927 306.786667 
L 461.518927 332.92 
L 447.119057 332.92 
L 447.119057 332.92 
z
" clip-path="url(#p627de83d41)" style="fill: #008bfb; stroke: #008bfb; stroke-linejoin: miter"/>
   </g>
   <g id="patch_24">
    <path d="M 443.878512 385.186667 
L 446.398495 372.12 
L 446.398495 372.12 
L 446.399025 372.12 
L 446.399025 398.253333 
L 446.398495 398.253333 
L 446.398495 398.253333 
z
" clip-path="url(#p627de83d41)" style="fill: #008bfb; stroke: #008bfb; stroke-linejoin: miter"/>
   </g>
   <g id="matplotlib.axis_1">
    <g id="xtick_1">
     <g id="line2d_21">
      <defs>
       <path id="m52113b911b" d="M 0 0 
L 0 3.5 
" style="stroke: #000000; stroke-width: 0.8"/>
      </defs>
      <g>
       <use xlink:href="#m52113b911b" x="75.961414" y="448.56" style="stroke: #000000; stroke-width: 0.8"/>
      </g>
     </g>
     <g id="text_1">
      <!-- −0.1 -->
      <g transform="translate(60.177586 465.437969)scale(0.13 -0.13)">
       <defs>
        <path id="DejaVuSans-2212" d="M 678 2272 
L 4684 2272 
L 4684 1741 
L 678 1741 
L 678 2272 
z
" transform="scale(0.015625)"/>
        <path id="DejaVuSans-30" d="M 2034 4250 
Q 1547 4250 1301 3770 
Q 1056 3291 1056 2328 
Q 1056 1369 1301 889 
Q 1547 409 2034 409 
Q 2525 409 2770 889 
Q 3016 1369 3016 2328 
Q 3016 3291 2770 3770 
Q 2525 4250 2034 4250 
z
M 2034 4750 
Q 2819 4750 3233 4129 
Q 3647 3509 3647 2328 
Q 3647 1150 3233 529 
Q 2819 -91 2034 -91 
Q 1250 -91 836 529 
Q 422 1150 422 2328 
Q 422 3509 836 4129 
Q 1250 4750 2034 4750 
z
" transform="scale(0.015625)"/>
        <path id="DejaVuSans-2e" d="M 684 794 
L 1344 794 
L 1344 0 
L 684 0 
L 684 794 
z
" transform="scale(0.015625)"/>
        <path id="DejaVuSans-31" d="M 794 531 
L 1825 531 
L 1825 4091 
L 703 3866 
L 703 4441 
L 1819 4666 
L 2450 4666 
L 2450 531 
L 3481 531 
L 3481 0 
L 794 0 
L 794 531 
z
" transform="scale(0.015625)"/>
       </defs>
       <use xlink:href="#DejaVuSans-2212"/>
       <use xlink:href="#DejaVuSans-30" x="83.789062"/>
       <use xlink:href="#DejaVuSans-2e" x="147.412109"/>
       <use xlink:href="#DejaVuSans-31" x="179.199219"/>
      </g>
     </g>
    </g>
    <g id="xtick_2">
     <g id="line2d_22">
      <g>
       <use xlink:href="#m52113b911b" x="128.881073" y="448.56" style="stroke: #000000; stroke-width: 0.8"/>
      </g>
     </g>
     <g id="text_2">
      <!-- 0.0 -->
      <g transform="translate(118.544042 465.437969)scale(0.13 -0.13)">
       <use xlink:href="#DejaVuSans-30"/>
       <use xlink:href="#DejaVuSans-2e" x="63.623047"/>
       <use xlink:href="#DejaVuSans-30" x="95.410156"/>
      </g>
     </g>
    </g>
    <g id="xtick_3">
     <g id="line2d_23">
      <g>
       <use xlink:href="#m52113b911b" x="181.800732" y="448.56" style="stroke: #000000; stroke-width: 0.8"/>
      </g>
     </g>
     <g id="text_3">
      <!-- 0.1 -->
      <g transform="translate(171.4637 465.437969)scale(0.13 -0.13)">
       <use xlink:href="#DejaVuSans-30"/>
       <use xlink:href="#DejaVuSans-2e" x="63.623047"/>
       <use xlink:href="#DejaVuSans-31" x="95.410156"/>
      </g>
     </g>
    </g>
    <g id="xtick_4">
     <g id="line2d_24">
      <g>
       <use xlink:href="#m52113b911b" x="234.72039" y="448.56" style="stroke: #000000; stroke-width: 0.8"/>
      </g>
     </g>
     <g id="text_4">
      <!-- 0.2 -->
      <g transform="translate(224.383359 465.437969)scale(0.13 -0.13)">
       <defs>
        <path id="DejaVuSans-32" d="M 1228 531 
L 3431 531 
L 3431 0 
L 469 0 
L 469 531 
Q 828 903 1448 1529 
Q 2069 2156 2228 2338 
Q 2531 2678 2651 2914 
Q 2772 3150 2772 3378 
Q 2772 3750 2511 3984 
Q 2250 4219 1831 4219 
Q 1534 4219 1204 4116 
Q 875 4013 500 3803 
L 500 4441 
Q 881 4594 1212 4672 
Q 1544 4750 1819 4750 
Q 2544 4750 2975 4387 
Q 3406 4025 3406 3419 
Q 3406 3131 3298 2873 
Q 3191 2616 2906 2266 
Q 2828 2175 2409 1742 
Q 1991 1309 1228 531 
z
" transform="scale(0.015625)"/>
       </defs>
       <use xlink:href="#DejaVuSans-30"/>
       <use xlink:href="#DejaVuSans-2e" x="63.623047"/>
       <use xlink:href="#DejaVuSans-32" x="95.410156"/>
      </g>
     </g>
    </g>
    <g id="xtick_5">
     <g id="line2d_25">
      <g>
       <use xlink:href="#m52113b911b" x="287.640049" y="448.56" style="stroke: #000000; stroke-width: 0.8"/>
      </g>
     </g>
     <g id="text_5">
      <!-- 0.3 -->
      <g transform="translate(277.303018 465.437969)scale(0.13 -0.13)">
       <defs>
        <path id="DejaVuSans-33" d="M 2597 2516 
Q 3050 2419 3304 2112 
Q 3559 1806 3559 1356 
Q 3559 666 3084 287 
Q 2609 -91 1734 -91 
Q 1441 -91 1130 -33 
Q 819 25 488 141 
L 488 750 
Q 750 597 1062 519 
Q 1375 441 1716 441 
Q 2309 441 2620 675 
Q 2931 909 2931 1356 
Q 2931 1769 2642 2001 
Q 2353 2234 1838 2234 
L 1294 2234 
L 1294 2753 
L 1863 2753 
Q 2328 2753 2575 2939 
Q 2822 3125 2822 3475 
Q 2822 3834 2567 4026 
Q 2313 4219 1838 4219 
Q 1578 4219 1281 4162 
Q 984 4106 628 3988 
L 628 4550 
Q 988 4650 1302 4700 
Q 1616 4750 1894 4750 
Q 2613 4750 3031 4423 
Q 3450 4097 3450 3541 
Q 3450 3153 3228 2886 
Q 3006 2619 2597 2516 
z
" transform="scale(0.015625)"/>
       </defs>
       <use xlink:href="#DejaVuSans-30"/>
       <use xlink:href="#DejaVuSans-2e" x="63.623047"/>
       <use xlink:href="#DejaVuSans-33" x="95.410156"/>
      </g>
     </g>
    </g>
    <g id="xtick_6">
     <g id="line2d_26">
      <g>
       <use xlink:href="#m52113b911b" x="340.559707" y="448.56" style="stroke: #000000; stroke-width: 0.8"/>
      </g>
     </g>
     <g id="text_6">
      <!-- 0.4 -->
      <g transform="translate(330.222676 465.437969)scale(0.13 -0.13)">
       <defs>
        <path id="DejaVuSans-34" d="M 2419 4116 
L 825 1625 
L 2419 1625 
L 2419 4116 
z
M 2253 4666 
L 3047 4666 
L 3047 1625 
L 3713 1625 
L 3713 1100 
L 3047 1100 
L 3047 0 
L 2419 0 
L 2419 1100 
L 313 1100 
L 313 1709 
L 2253 4666 
z
" transform="scale(0.015625)"/>
       </defs>
       <use xlink:href="#DejaVuSans-30"/>
       <use xlink:href="#DejaVuSans-2e" x="63.623047"/>
       <use xlink:href="#DejaVuSans-34" x="95.410156"/>
      </g>
     </g>
    </g>
    <g id="xtick_7">
     <g id="line2d_27">
      <g>
       <use xlink:href="#m52113b911b" x="393.479366" y="448.56" style="stroke: #000000; stroke-width: 0.8"/>
      </g>
     </g>
     <g id="text_7">
      <!-- 0.5 -->
      <g transform="translate(383.142335 465.437969)scale(0.13 -0.13)">
       <defs>
        <path id="DejaVuSans-35" d="M 691 4666 
L 3169 4666 
L 3169 4134 
L 1269 4134 
L 1269 2991 
Q 1406 3038 1543 3061 
Q 1681 3084 1819 3084 
Q 2600 3084 3056 2656 
Q 3513 2228 3513 1497 
Q 3513 744 3044 326 
Q 2575 -91 1722 -91 
Q 1428 -91 1123 -41 
Q 819 9 494 109 
L 494 744 
Q 775 591 1075 516 
Q 1375 441 1709 441 
Q 2250 441 2565 725 
Q 2881 1009 2881 1497 
Q 2881 1984 2565 2268 
Q 2250 2553 1709 2553 
Q 1456 2553 1204 2497 
Q 953 2441 691 2322 
L 691 4666 
z
" transform="scale(0.015625)"/>
       </defs>
       <use xlink:href="#DejaVuSans-30"/>
       <use xlink:href="#DejaVuSans-2e" x="63.623047"/>
       <use xlink:href="#DejaVuSans-35" x="95.410156"/>
      </g>
     </g>
    </g>
    <g id="xtick_8">
     <g id="line2d_28">
      <g>
       <use xlink:href="#m52113b911b" x="446.399025" y="448.56" style="stroke: #000000; stroke-width: 0.8"/>
      </g>
     </g>
     <g id="text_8">
      <!-- 0.6 -->
      <g transform="translate(436.061993 465.437969)scale(0.13 -0.13)">
       <defs>
        <path id="DejaVuSans-36" d="M 2113 2584 
Q 1688 2584 1439 2293 
Q 1191 2003 1191 1497 
Q 1191 994 1439 701 
Q 1688 409 2113 409 
Q 2538 409 2786 701 
Q 3034 994 3034 1497 
Q 3034 2003 2786 2293 
Q 2538 2584 2113 2584 
z
M 3366 4563 
L 3366 3988 
Q 3128 4100 2886 4159 
Q 2644 4219 2406 4219 
Q 1781 4219 1451 3797 
Q 1122 3375 1075 2522 
Q 1259 2794 1537 2939 
Q 1816 3084 2150 3084 
Q 2853 3084 3261 2657 
Q 3669 2231 3669 1497 
Q 3669 778 3244 343 
Q 2819 -91 2113 -91 
Q 1303 -91 875 529 
Q 447 1150 447 2328 
Q 447 3434 972 4092 
Q 1497 4750 2381 4750 
Q 2619 4750 2861 4703 
Q 3103 4656 3366 4563 
z
" transform="scale(0.015625)"/>
       </defs>
       <use xlink:href="#DejaVuSans-30"/>
       <use xlink:href="#DejaVuSans-2e" x="63.623047"/>
       <use xlink:href="#DejaVuSans-36" x="95.410156"/>
      </g>
     </g>
    </g>
    <g id="xtick_9">
     <g id="line2d_29">
      <g>
       <use xlink:href="#m52113b911b" x="499.318683" y="448.56" style="stroke: #000000; stroke-width: 0.8"/>
      </g>
     </g>
     <g id="text_9">
      <!-- 0.7 -->
      <g transform="translate(488.981652 465.437969)scale(0.13 -0.13)">
       <defs>
        <path id="DejaVuSans-37" d="M 525 4666 
L 3525 4666 
L 3525 4397 
L 1831 0 
L 1172 0 
L 2766 4134 
L 525 4134 
L 525 4666 
z
" transform="scale(0.015625)"/>
       </defs>
       <use xlink:href="#DejaVuSans-30"/>
       <use xlink:href="#DejaVuSans-2e" x="63.623047"/>
       <use xlink:href="#DejaVuSans-37" x="95.410156"/>
      </g>
     </g>
    </g>
   </g>
   <g id="matplotlib.axis_2">
    <g id="ytick_1">
     <g id="text_10">
      <!-- 0 = fbs -->
      <g style="fill: #999999" transform="translate(17.970469 422.792318)scale(0.13 -0.13)">
       <defs>
        <path id="DejaVuSans-20" transform="scale(0.015625)"/>
        <path id="DejaVuSans-3d" d="M 678 2906 
L 4684 2906 
L 4684 2381 
L 678 2381 
L 678 2906 
z
M 678 1631 
L 4684 1631 
L 4684 1100 
L 678 1100 
L 678 1631 
z
" transform="scale(0.015625)"/>
        <path id="DejaVuSans-66" d="M 2375 4863 
L 2375 4384 
L 1825 4384 
Q 1516 4384 1395 4259 
Q 1275 4134 1275 3809 
L 1275 3500 
L 2222 3500 
L 2222 3053 
L 1275 3053 
L 1275 0 
L 697 0 
L 697 3053 
L 147 3053 
L 147 3500 
L 697 3500 
L 697 3744 
Q 697 4328 969 4595 
Q 1241 4863 1831 4863 
L 2375 4863 
z
" transform="scale(0.015625)"/>
        <path id="DejaVuSans-62" d="M 3116 1747 
Q 3116 2381 2855 2742 
Q 2594 3103 2138 3103 
Q 1681 3103 1420 2742 
Q 1159 2381 1159 1747 
Q 1159 1113 1420 752 
Q 1681 391 2138 391 
Q 2594 391 2855 752 
Q 3116 1113 3116 1747 
z
M 1159 2969 
Q 1341 3281 1617 3432 
Q 1894 3584 2278 3584 
Q 2916 3584 3314 3078 
Q 3713 2572 3713 1747 
Q 3713 922 3314 415 
Q 2916 -91 2278 -91 
Q 1894 -91 1617 61 
Q 1341 213 1159 525 
L 1159 0 
L 581 0 
L 581 4863 
L 1159 4863 
L 1159 2969 
z
" transform="scale(0.015625)"/>
        <path id="DejaVuSans-73" d="M 2834 3397 
L 2834 2853 
Q 2591 2978 2328 3040 
Q 2066 3103 1784 3103 
Q 1356 3103 1142 2972 
Q 928 2841 928 2578 
Q 928 2378 1081 2264 
Q 1234 2150 1697 2047 
L 1894 2003 
Q 2506 1872 2764 1633 
Q 3022 1394 3022 966 
Q 3022 478 2636 193 
Q 2250 -91 1575 -91 
Q 1294 -91 989 -36 
Q 684 19 347 128 
L 347 722 
Q 666 556 975 473 
Q 1284 391 1588 391 
Q 1994 391 2212 530 
Q 2431 669 2431 922 
Q 2431 1156 2273 1281 
Q 2116 1406 1581 1522 
L 1381 1569 
Q 847 1681 609 1914 
Q 372 2147 372 2553 
Q 372 3047 722 3315 
Q 1072 3584 1716 3584 
Q 2034 3584 2315 3537 
Q 2597 3491 2834 3397 
z
" transform="scale(0.015625)"/>
       </defs>
       <use xlink:href="#DejaVuSans-30"/>
       <use xlink:href="#DejaVuSans-20" x="63.623047"/>
       <use xlink:href="#DejaVuSans-3d" x="95.410156"/>
       <use xlink:href="#DejaVuSans-20" x="179.199219"/>
       <use xlink:href="#DejaVuSans-66" x="210.986328"/>
       <use xlink:href="#DejaVuSans-62" x="246.191406"/>
       <use xlink:href="#DejaVuSans-73" x="309.667969"/>
      </g>
     </g>
    </g>
    <g id="ytick_2">
     <g id="text_11">
      <!-- 135 = bps -->
      <g style="fill: #999999" transform="translate(-2.248594 390.125651)scale(0.13 -0.13)">
       <defs>
        <path id="DejaVuSans-70" d="M 1159 525 
L 1159 -1331 
L 581 -1331 
L 581 3500 
L 1159 3500 
L 1159 2969 
Q 1341 3281 1617 3432 
Q 1894 3584 2278 3584 
Q 2916 3584 3314 3078 
Q 3713 2572 3713 1747 
Q 3713 922 3314 415 
Q 2916 -91 2278 -91 
Q 1894 -91 1617 61 
Q 1341 213 1159 525 
z
M 3116 1747 
Q 3116 2381 2855 2742 
Q 2594 3103 2138 3103 
Q 1681 3103 1420 2742 
Q 1159 2381 1159 1747 
Q 1159 1113 1420 752 
Q 1681 391 2138 391 
Q 2594 391 2855 752 
Q 3116 1113 3116 1747 
z
" transform="scale(0.015625)"/>
       </defs>
       <use xlink:href="#DejaVuSans-31"/>
       <use xlink:href="#DejaVuSans-33" x="63.623047"/>
       <use xlink:href="#DejaVuSans-35" x="127.246094"/>
       <use xlink:href="#DejaVuSans-20" x="190.869141"/>
       <use xlink:href="#DejaVuSans-3d" x="222.65625"/>
       <use xlink:href="#DejaVuSans-20" x="306.445312"/>
       <use xlink:href="#DejaVuSans-62" x="338.232422"/>
       <use xlink:href="#DejaVuSans-70" x="401.708984"/>
       <use xlink:href="#DejaVuSans-73" x="465.185547"/>
      </g>
     </g>
    </g>
    <g id="ytick_3">
     <g id="text_12">
      <!-- 1 = sex -->
      <g style="fill: #999999" transform="translate(15.333906 357.458984)scale(0.13 -0.13)">
       <defs>
        <path id="DejaVuSans-65" d="M 3597 1894 
L 3597 1613 
L 953 1613 
Q 991 1019 1311 708 
Q 1631 397 2203 397 
Q 2534 397 2845 478 
Q 3156 559 3463 722 
L 3463 178 
Q 3153 47 2828 -22 
Q 2503 -91 2169 -91 
Q 1331 -91 842 396 
Q 353 884 353 1716 
Q 353 2575 817 3079 
Q 1281 3584 2069 3584 
Q 2775 3584 3186 3129 
Q 3597 2675 3597 1894 
z
M 3022 2063 
Q 3016 2534 2758 2815 
Q 2500 3097 2075 3097 
Q 1594 3097 1305 2825 
Q 1016 2553 972 2059 
L 3022 2063 
z
" transform="scale(0.015625)"/>
        <path id="DejaVuSans-78" d="M 3513 3500 
L 2247 1797 
L 3578 0 
L 2900 0 
L 1881 1375 
L 863 0 
L 184 0 
L 1544 1831 
L 300 3500 
L 978 3500 
L 1906 2253 
L 2834 3500 
L 3513 3500 
z
" transform="scale(0.015625)"/>
       </defs>
       <use xlink:href="#DejaVuSans-31"/>
       <use xlink:href="#DejaVuSans-20" x="63.623047"/>
       <use xlink:href="#DejaVuSans-3d" x="95.410156"/>
       <use xlink:href="#DejaVuSans-20" x="179.199219"/>
       <use xlink:href="#DejaVuSans-73" x="210.986328"/>
       <use xlink:href="#DejaVuSans-65" x="263.085938"/>
       <use xlink:href="#DejaVuSans-78" x="322.859375"/>
      </g>
     </g>
    </g>
    <g id="ytick_4">
     <g id="text_13">
      <!-- 200 = ch -->
      <g style="fill: #999999" transform="translate(5.642812 324.792318)scale(0.13 -0.13)">
       <defs>
        <path id="DejaVuSans-63" d="M 3122 3366 
L 3122 2828 
Q 2878 2963 2633 3030 
Q 2388 3097 2138 3097 
Q 1578 3097 1268 2742 
Q 959 2388 959 1747 
Q 959 1106 1268 751 
Q 1578 397 2138 397 
Q 2388 397 2633 464 
Q 2878 531 3122 666 
L 3122 134 
Q 2881 22 2623 -34 
Q 2366 -91 2075 -91 
Q 1284 -91 818 406 
Q 353 903 353 1747 
Q 353 2603 823 3093 
Q 1294 3584 2113 3584 
Q 2378 3584 2631 3529 
Q 2884 3475 3122 3366 
z
" transform="scale(0.015625)"/>
        <path id="DejaVuSans-68" d="M 3513 2113 
L 3513 0 
L 2938 0 
L 2938 2094 
Q 2938 2591 2744 2837 
Q 2550 3084 2163 3084 
Q 1697 3084 1428 2787 
Q 1159 2491 1159 1978 
L 1159 0 
L 581 0 
L 581 4863 
L 1159 4863 
L 1159 2956 
Q 1366 3272 1645 3428 
Q 1925 3584 2291 3584 
Q 2894 3584 3203 3211 
Q 3513 2838 3513 2113 
z
" transform="scale(0.015625)"/>
       </defs>
       <use xlink:href="#DejaVuSans-32"/>
       <use xlink:href="#DejaVuSans-30" x="63.623047"/>
       <use xlink:href="#DejaVuSans-30" x="127.246094"/>
       <use xlink:href="#DejaVuSans-20" x="190.869141"/>
       <use xlink:href="#DejaVuSans-3d" x="222.65625"/>
       <use xlink:href="#DejaVuSans-20" x="306.445312"/>
       <use xlink:href="#DejaVuSans-63" x="338.232422"/>
       <use xlink:href="#DejaVuSans-68" x="393.212891"/>
      </g>
     </g>
    </g>
    <g id="ytick_5">
     <g id="text_14">
      <!-- 0 = ecg -->
      <g style="fill: #999999" transform="translate(14.172031 292.125651)scale(0.13 -0.13)">
       <defs>
        <path id="DejaVuSans-67" d="M 2906 1791 
Q 2906 2416 2648 2759 
Q 2391 3103 1925 3103 
Q 1463 3103 1205 2759 
Q 947 2416 947 1791 
Q 947 1169 1205 825 
Q 1463 481 1925 481 
Q 2391 481 2648 825 
Q 2906 1169 2906 1791 
z
M 3481 434 
Q 3481 -459 3084 -895 
Q 2688 -1331 1869 -1331 
Q 1566 -1331 1297 -1286 
Q 1028 -1241 775 -1147 
L 775 -588 
Q 1028 -725 1275 -790 
Q 1522 -856 1778 -856 
Q 2344 -856 2625 -561 
Q 2906 -266 2906 331 
L 2906 616 
Q 2728 306 2450 153 
Q 2172 0 1784 0 
Q 1141 0 747 490 
Q 353 981 353 1791 
Q 353 2603 747 3093 
Q 1141 3584 1784 3584 
Q 2172 3584 2450 3431 
Q 2728 3278 2906 2969 
L 2906 3500 
L 3481 3500 
L 3481 434 
z
" transform="scale(0.015625)"/>
       </defs>
       <use xlink:href="#DejaVuSans-30"/>
       <use xlink:href="#DejaVuSans-20" x="63.623047"/>
       <use xlink:href="#DejaVuSans-3d" x="95.410156"/>
       <use xlink:href="#DejaVuSans-20" x="179.199219"/>
       <use xlink:href="#DejaVuSans-65" x="210.986328"/>
       <use xlink:href="#DejaVuSans-63" x="272.509766"/>
       <use xlink:href="#DejaVuSans-67" x="327.490234"/>
      </g>
     </g>
    </g>
    <g id="ytick_6">
     <g id="text_15">
      <!-- 0 = ex -->
      <g style="fill: #999999" transform="translate(22.106094 259.458984)scale(0.13 -0.13)">
       <use xlink:href="#DejaVuSans-30"/>
       <use xlink:href="#DejaVuSans-20" x="63.623047"/>
       <use xlink:href="#DejaVuSans-3d" x="95.410156"/>
       <use xlink:href="#DejaVuSans-20" x="179.199219"/>
       <use xlink:href="#DejaVuSans-65" x="210.986328"/>
       <use xlink:href="#DejaVuSans-78" x="270.759766"/>
      </g>
     </g>
    </g>
    <g id="ytick_7">
     <g id="text_16">
      <!-- 2 = op -->
      <g style="fill: #999999" transform="translate(21.364687 226.792318)scale(0.13 -0.13)">
       <defs>
        <path id="DejaVuSans-6f" d="M 1959 3097 
Q 1497 3097 1228 2736 
Q 959 2375 959 1747 
Q 959 1119 1226 758 
Q 1494 397 1959 397 
Q 2419 397 2687 759 
Q 2956 1122 2956 1747 
Q 2956 2369 2687 2733 
Q 2419 3097 1959 3097 
z
M 1959 3584 
Q 2709 3584 3137 3096 
Q 3566 2609 3566 1747 
Q 3566 888 3137 398 
Q 2709 -91 1959 -91 
Q 1206 -91 779 398 
Q 353 888 353 1747 
Q 353 2609 779 3096 
Q 1206 3584 1959 3584 
z
" transform="scale(0.015625)"/>
       </defs>
       <use xlink:href="#DejaVuSans-32"/>
       <use xlink:href="#DejaVuSans-20" x="63.623047"/>
       <use xlink:href="#DejaVuSans-3d" x="95.410156"/>
       <use xlink:href="#DejaVuSans-20" x="179.199219"/>
       <use xlink:href="#DejaVuSans-6f" x="210.986328"/>
       <use xlink:href="#DejaVuSans-70" x="272.167969"/>
      </g>
     </g>
    </g>
    <g id="ytick_8">
     <g id="text_17">
      <!-- 100 = mhr -->
      <g style="fill: #999999" transform="translate(-5.21625 194.125651)scale(0.13 -0.13)">
       <defs>
        <path id="DejaVuSans-6d" d="M 3328 2828 
Q 3544 3216 3844 3400 
Q 4144 3584 4550 3584 
Q 5097 3584 5394 3201 
Q 5691 2819 5691 2113 
L 5691 0 
L 5113 0 
L 5113 2094 
Q 5113 2597 4934 2840 
Q 4756 3084 4391 3084 
Q 3944 3084 3684 2787 
Q 3425 2491 3425 1978 
L 3425 0 
L 2847 0 
L 2847 2094 
Q 2847 2600 2669 2842 
Q 2491 3084 2119 3084 
Q 1678 3084 1418 2786 
Q 1159 2488 1159 1978 
L 1159 0 
L 581 0 
L 581 3500 
L 1159 3500 
L 1159 2956 
Q 1356 3278 1631 3431 
Q 1906 3584 2284 3584 
Q 2666 3584 2933 3390 
Q 3200 3197 3328 2828 
z
" transform="scale(0.015625)"/>
        <path id="DejaVuSans-72" d="M 2631 2963 
Q 2534 3019 2420 3045 
Q 2306 3072 2169 3072 
Q 1681 3072 1420 2755 
Q 1159 2438 1159 1844 
L 1159 0 
L 581 0 
L 581 3500 
L 1159 3500 
L 1159 2956 
Q 1341 3275 1631 3429 
Q 1922 3584 2338 3584 
Q 2397 3584 2469 3576 
Q 2541 3569 2628 3553 
L 2631 2963 
z
" transform="scale(0.015625)"/>
       </defs>
       <use xlink:href="#DejaVuSans-31"/>
       <use xlink:href="#DejaVuSans-30" x="63.623047"/>
       <use xlink:href="#DejaVuSans-30" x="127.246094"/>
       <use xlink:href="#DejaVuSans-20" x="190.869141"/>
       <use xlink:href="#DejaVuSans-3d" x="222.65625"/>
       <use xlink:href="#DejaVuSans-20" x="306.445312"/>
       <use xlink:href="#DejaVuSans-6d" x="338.232422"/>
       <use xlink:href="#DejaVuSans-68" x="435.644531"/>
       <use xlink:href="#DejaVuSans-72" x="499.023438"/>
      </g>
     </g>
    </g>
    <g id="ytick_9">
     <g id="text_18">
      <!-- 1 = cp -->
      <g style="fill: #999999" transform="translate(22.171094 161.458984)scale(0.13 -0.13)">
       <use xlink:href="#DejaVuSans-31"/>
       <use xlink:href="#DejaVuSans-20" x="63.623047"/>
       <use xlink:href="#DejaVuSans-3d" x="95.410156"/>
       <use xlink:href="#DejaVuSans-20" x="179.199219"/>
       <use xlink:href="#DejaVuSans-63" x="210.986328"/>
       <use xlink:href="#DejaVuSans-70" x="265.966797"/>
      </g>
     </g>
    </g>
    <g id="ytick_10">
     <g id="text_19">
      <!-- 21 = age -->
      <g style="fill: #999999" transform="translate(5.082187 128.792318)scale(0.13 -0.13)">
       <defs>
        <path id="DejaVuSans-61" d="M 2194 1759 
Q 1497 1759 1228 1600 
Q 959 1441 959 1056 
Q 959 750 1161 570 
Q 1363 391 1709 391 
Q 2188 391 2477 730 
Q 2766 1069 2766 1631 
L 2766 1759 
L 2194 1759 
z
M 3341 1997 
L 3341 0 
L 2766 0 
L 2766 531 
Q 2569 213 2275 61 
Q 1981 -91 1556 -91 
Q 1019 -91 701 211 
Q 384 513 384 1019 
Q 384 1609 779 1909 
Q 1175 2209 1959 2209 
L 2766 2209 
L 2766 2266 
Q 2766 2663 2505 2880 
Q 2244 3097 1772 3097 
Q 1472 3097 1187 3025 
Q 903 2953 641 2809 
L 641 3341 
Q 956 3463 1253 3523 
Q 1550 3584 1831 3584 
Q 2591 3584 2966 3190 
Q 3341 2797 3341 1997 
z
" transform="scale(0.015625)"/>
       </defs>
       <use xlink:href="#DejaVuSans-32"/>
       <use xlink:href="#DejaVuSans-31" x="63.623047"/>
       <use xlink:href="#DejaVuSans-20" x="127.246094"/>
       <use xlink:href="#DejaVuSans-3d" x="159.033203"/>
       <use xlink:href="#DejaVuSans-20" x="242.822266"/>
       <use xlink:href="#DejaVuSans-61" x="274.609375"/>
       <use xlink:href="#DejaVuSans-67" x="335.888672"/>
       <use xlink:href="#DejaVuSans-65" x="399.365234"/>
      </g>
     </g>
    </g>
    <g id="ytick_11">
     <g id="text_20">
      <!-- 0 = slp -->
      <g style="fill: #999999" transform="translate(18.935312 96.125651)scale(0.13 -0.13)">
       <defs>
        <path id="DejaVuSans-6c" d="M 603 4863 
L 1178 4863 
L 1178 0 
L 603 0 
L 603 4863 
z
" transform="scale(0.015625)"/>
       </defs>
       <use xlink:href="#DejaVuSans-30"/>
       <use xlink:href="#DejaVuSans-20" x="63.623047"/>
       <use xlink:href="#DejaVuSans-3d" x="95.410156"/>
       <use xlink:href="#DejaVuSans-20" x="179.199219"/>
       <use xlink:href="#DejaVuSans-73" x="210.986328"/>
       <use xlink:href="#DejaVuSans-6c" x="263.085938"/>
       <use xlink:href="#DejaVuSans-70" x="290.869141"/>
      </g>
     </g>
    </g>
    <g id="ytick_12">
     <g id="text_21">
      <!--  fbs -->
      <g transform="translate(41.266875 422.792317)scale(0.13 -0.13)">
       <use xlink:href="#DejaVuSans-20"/>
       <use xlink:href="#DejaVuSans-66" x="31.787109"/>
       <use xlink:href="#DejaVuSans-62" x="66.992188"/>
       <use xlink:href="#DejaVuSans-73" x="130.46875"/>
      </g>
     </g>
    </g>
    <g id="ytick_13">
     <g id="text_22">
      <!--  bps -->
      <g transform="translate(37.590312 390.125651)scale(0.13 -0.13)">
       <use xlink:href="#DejaVuSans-20"/>
       <use xlink:href="#DejaVuSans-62" x="31.787109"/>
       <use xlink:href="#DejaVuSans-70" x="95.263672"/>
       <use xlink:href="#DejaVuSans-73" x="158.740234"/>
      </g>
     </g>
    </g>
    <g id="ytick_14">
     <g id="text_23">
      <!--  sex -->
      <g transform="translate(38.630313 357.458984)scale(0.13 -0.13)">
       <use xlink:href="#DejaVuSans-20"/>
       <use xlink:href="#DejaVuSans-73" x="31.787109"/>
       <use xlink:href="#DejaVuSans-65" x="83.886719"/>
       <use xlink:href="#DejaVuSans-78" x="143.660156"/>
      </g>
     </g>
    </g>
    <g id="ytick_15">
     <g id="text_24">
      <!--  ch -->
      <g transform="translate(45.481719 324.792317)scale(0.13 -0.13)">
       <use xlink:href="#DejaVuSans-20"/>
       <use xlink:href="#DejaVuSans-63" x="31.787109"/>
       <use xlink:href="#DejaVuSans-68" x="86.767578"/>
      </g>
     </g>
    </g>
    <g id="ytick_16">
     <g id="text_25">
      <!--  ecg -->
      <g transform="translate(37.468438 292.125651)scale(0.13 -0.13)">
       <use xlink:href="#DejaVuSans-20"/>
       <use xlink:href="#DejaVuSans-65" x="31.787109"/>
       <use xlink:href="#DejaVuSans-63" x="93.310547"/>
       <use xlink:href="#DejaVuSans-67" x="148.291016"/>
      </g>
     </g>
    </g>
    <g id="ytick_17">
     <g id="text_26">
      <!--  ex -->
      <g transform="translate(45.4025 259.458984)scale(0.13 -0.13)">
       <use xlink:href="#DejaVuSans-20"/>
       <use xlink:href="#DejaVuSans-65" x="31.787109"/>
       <use xlink:href="#DejaVuSans-78" x="91.560547"/>
      </g>
     </g>
    </g>
    <g id="ytick_18">
     <g id="text_27">
      <!--  op -->
      <g transform="translate(44.661094 226.792317)scale(0.13 -0.13)">
       <use xlink:href="#DejaVuSans-20"/>
       <use xlink:href="#DejaVuSans-6f" x="31.787109"/>
       <use xlink:href="#DejaVuSans-70" x="92.96875"/>
      </g>
     </g>
    </g>
    <g id="ytick_19">
     <g id="text_28">
      <!--  mhr -->
      <g transform="translate(34.622656 194.125651)scale(0.13 -0.13)">
       <use xlink:href="#DejaVuSans-20"/>
       <use xlink:href="#DejaVuSans-6d" x="31.787109"/>
       <use xlink:href="#DejaVuSans-68" x="129.199219"/>
       <use xlink:href="#DejaVuSans-72" x="192.578125"/>
      </g>
     </g>
    </g>
    <g id="ytick_20">
     <g id="text_29">
      <!--  cp -->
      <g transform="translate(45.4675 161.458984)scale(0.13 -0.13)">
       <use xlink:href="#DejaVuSans-20"/>
       <use xlink:href="#DejaVuSans-63" x="31.787109"/>
       <use xlink:href="#DejaVuSans-70" x="86.767578"/>
      </g>
     </g>
    </g>
    <g id="ytick_21">
     <g id="text_30">
      <!--  age -->
      <g transform="translate(36.649844 128.792317)scale(0.13 -0.13)">
       <use xlink:href="#DejaVuSans-20"/>
       <use xlink:href="#DejaVuSans-61" x="31.787109"/>
       <use xlink:href="#DejaVuSans-67" x="93.066406"/>
       <use xlink:href="#DejaVuSans-65" x="156.542969"/>
      </g>
     </g>
    </g>
    <g id="ytick_22">
     <g id="text_31">
      <!--  slp -->
      <g transform="translate(42.231719 96.125651)scale(0.13 -0.13)">
       <use xlink:href="#DejaVuSans-20"/>
       <use xlink:href="#DejaVuSans-73" x="31.787109"/>
       <use xlink:href="#DejaVuSans-6c" x="83.886719"/>
       <use xlink:href="#DejaVuSans-70" x="111.669922"/>
      </g>
     </g>
    </g>
   </g>
   <g id="patch_25">
    <path d="M 72 448.56 
L 518.4 448.56 
" style="fill: none; stroke: #000000; stroke-width: 0.8; stroke-linejoin: miter; stroke-linecap: square"/>
   </g>
   <g id="text_32">
    <!-- +0.06 -->
    <g style="fill: #ff0051" transform="translate(453.919008 192.497917)scale(0.12 -0.12)">
     <defs>
      <path id="DejaVuSans-2b" d="M 2944 4013 
L 2944 2272 
L 4684 2272 
L 4684 1741 
L 2944 1741 
L 2944 0 
L 2419 0 
L 2419 1741 
L 678 1741 
L 678 2272 
L 2419 2272 
L 2419 4013 
L 2944 4013 
z
" transform="scale(0.015625)"/>
     </defs>
     <use xlink:href="#DejaVuSans-2b"/>
     <use xlink:href="#DejaVuSans-30" x="83.789062"/>
     <use xlink:href="#DejaVuSans-2e" x="147.412109"/>
     <use xlink:href="#DejaVuSans-30" x="179.199219"/>
     <use xlink:href="#DejaVuSans-36" x="242.822266"/>
    </g>
   </g>
   <g id="text_33">
    <!-- +0.06 -->
    <g style="fill: #ff0051" transform="translate(421.15922 225.164583)scale(0.12 -0.12)">
     <use xlink:href="#DejaVuSans-2b"/>
     <use xlink:href="#DejaVuSans-30" x="83.789062"/>
     <use xlink:href="#DejaVuSans-2e" x="147.412109"/>
     <use xlink:href="#DejaVuSans-30" x="179.199219"/>
     <use xlink:href="#DejaVuSans-36" x="242.822266"/>
    </g>
   </g>
   <g id="text_34">
    <!-- +0.03 -->
    <g style="fill: #ff0051" transform="translate(466.518927 355.83125)scale(0.12 -0.12)">
     <use xlink:href="#DejaVuSans-2b"/>
     <use xlink:href="#DejaVuSans-30" x="83.789062"/>
     <use xlink:href="#DejaVuSans-2e" x="147.412109"/>
     <use xlink:href="#DejaVuSans-30" x="179.199219"/>
     <use xlink:href="#DejaVuSans-33" x="242.822266"/>
    </g>
   </g>
   <g id="text_35">
    <!-- +0 -->
    <g style="fill: #ff0051" transform="translate(451.399025 421.164583)scale(0.12 -0.12)">
     <use xlink:href="#DejaVuSans-2b"/>
     <use xlink:href="#DejaVuSans-30" x="83.789062"/>
    </g>
   </g>
   <g id="text_36">
    <!-- −0.43 -->
    <g style="fill: #ffffff" transform="translate(225.153146 94.497917)scale(0.12 -0.12)">
     <use xlink:href="#DejaVuSans-2212"/>
     <use xlink:href="#DejaVuSans-30" x="83.789062"/>
     <use xlink:href="#DejaVuSans-2e" x="147.412109"/>
     <use xlink:href="#DejaVuSans-34" x="179.199219"/>
     <use xlink:href="#DejaVuSans-33" x="242.822266"/>
    </g>
   </g>
   <g id="text_37">
    <!-- −0.1 -->
    <g style="fill: #ffffff" transform="translate(371.349727 127.164583)scale(0.12 -0.12)">
     <use xlink:href="#DejaVuSans-2212"/>
     <use xlink:href="#DejaVuSans-30" x="83.789062"/>
     <use xlink:href="#DejaVuSans-2e" x="147.412109"/>
     <use xlink:href="#DejaVuSans-31" x="179.199219"/>
    </g>
   </g>
   <g id="text_38">
    <!-- −0.07 -->
    <g style="fill: #008bfb" transform="translate(371.864861 159.83125)scale(0.12 -0.12)">
     <use xlink:href="#DejaVuSans-2212"/>
     <use xlink:href="#DejaVuSans-30" x="83.789062"/>
     <use xlink:href="#DejaVuSans-2e" x="147.412109"/>
     <use xlink:href="#DejaVuSans-30" x="179.199219"/>
     <use xlink:href="#DejaVuSans-37" x="242.822266"/>
    </g>
   </g>
   <g id="text_39">
    <!-- −0.06 -->
    <g style="fill: #008bfb" transform="translate(341.625056 257.83125)scale(0.12 -0.12)">
     <use xlink:href="#DejaVuSans-2212"/>
     <use xlink:href="#DejaVuSans-30" x="83.789062"/>
     <use xlink:href="#DejaVuSans-2e" x="147.412109"/>
     <use xlink:href="#DejaVuSans-30" x="179.199219"/>
     <use xlink:href="#DejaVuSans-36" x="242.822266"/>
    </g>
   </g>
   <g id="text_40">
    <!-- −0.05 -->
    <g style="fill: #008bfb" transform="translate(371.864861 290.497917)scale(0.12 -0.12)">
     <use xlink:href="#DejaVuSans-2212"/>
     <use xlink:href="#DejaVuSans-30" x="83.789062"/>
     <use xlink:href="#DejaVuSans-2e" x="147.412109"/>
     <use xlink:href="#DejaVuSans-30" x="179.199219"/>
     <use xlink:href="#DejaVuSans-35" x="242.822266"/>
    </g>
   </g>
   <g id="text_41">
    <!-- −0.04 -->
    <g style="fill: #008bfb" transform="translate(399.584682 323.164583)scale(0.12 -0.12)">
     <use xlink:href="#DejaVuSans-2212"/>
     <use xlink:href="#DejaVuSans-30" x="83.789062"/>
     <use xlink:href="#DejaVuSans-2e" x="147.412109"/>
     <use xlink:href="#DejaVuSans-30" x="179.199219"/>
     <use xlink:href="#DejaVuSans-34" x="242.822266"/>
    </g>
   </g>
   <g id="text_42">
    <!-- −0 -->
    <g style="fill: #008bfb" transform="translate(421.188416 388.497917)scale(0.12 -0.12)">
     <use xlink:href="#DejaVuSans-2212"/>
     <use xlink:href="#DejaVuSans-30" x="83.789062"/>
    </g>
   </g>
  </g>
  <g id="axes_2">
   <g id="matplotlib.axis_3">
    <g id="xtick_10">
     <g id="line2d_30">
      <g>
       <use xlink:href="#m52113b911b" x="446.399025" y="448.56" style="stroke: #000000; stroke-width: 0.8"/>
      </g>
     </g>
     <g id="text_43">
      <!--  -->
      <g transform="translate(426.399025 464.678125)scale(0.12 -0.12)"/>
      <!-- $E[f(X)]$ -->
      <g transform="translate(426.399025 478.1155)scale(0.12 -0.12)">
       <defs>
        <path id="DejaVuSans-Oblique-45" d="M 1081 4666 
L 4031 4666 
L 3928 4134 
L 1606 4134 
L 1338 2753 
L 3566 2753 
L 3463 2222 
L 1234 2222 
L 909 531 
L 3284 531 
L 3181 0 
L 172 0 
L 1081 4666 
z
" transform="scale(0.015625)"/>
        <path id="DejaVuSans-5b" d="M 550 4863 
L 1875 4863 
L 1875 4416 
L 1125 4416 
L 1125 -397 
L 1875 -397 
L 1875 -844 
L 550 -844 
L 550 4863 
z
" transform="scale(0.015625)"/>
        <path id="DejaVuSans-Oblique-66" d="M 3059 4863 
L 2969 4384 
L 2419 4384 
Q 2106 4384 1964 4261 
Q 1822 4138 1753 3809 
L 1691 3500 
L 2638 3500 
L 2553 3053 
L 1606 3053 
L 1013 0 
L 434 0 
L 1031 3053 
L 481 3053 
L 563 3500 
L 1113 3500 
L 1159 3744 
Q 1278 4363 1576 4613 
Q 1875 4863 2516 4863 
L 3059 4863 
z
" transform="scale(0.015625)"/>
        <path id="DejaVuSans-28" d="M 1984 4856 
Q 1566 4138 1362 3434 
Q 1159 2731 1159 2009 
Q 1159 1288 1364 580 
Q 1569 -128 1984 -844 
L 1484 -844 
Q 1016 -109 783 600 
Q 550 1309 550 2009 
Q 550 2706 781 3412 
Q 1013 4119 1484 4856 
L 1984 4856 
z
" transform="scale(0.015625)"/>
        <path id="DejaVuSans-Oblique-58" d="M 878 4666 
L 1516 4666 
L 2316 2981 
L 3763 4666 
L 4500 4666 
L 2578 2438 
L 3738 0 
L 3103 0 
L 2163 1966 
L 459 0 
L -275 0 
L 1906 2509 
L 878 4666 
z
" transform="scale(0.015625)"/>
        <path id="DejaVuSans-29" d="M 513 4856 
L 1013 4856 
Q 1481 4119 1714 3412 
Q 1947 2706 1947 2009 
Q 1947 1309 1714 600 
Q 1481 -109 1013 -844 
L 513 -844 
Q 928 -128 1133 580 
Q 1338 1288 1338 2009 
Q 1338 2731 1133 3434 
Q 928 4138 513 4856 
z
" transform="scale(0.015625)"/>
        <path id="DejaVuSans-5d" d="M 1947 4863 
L 1947 -844 
L 622 -844 
L 622 -397 
L 1369 -397 
L 1369 4416 
L 622 4416 
L 622 4863 
L 1947 4863 
z
" transform="scale(0.015625)"/>
       </defs>
       <use xlink:href="#DejaVuSans-Oblique-45" transform="translate(0 0.015625)"/>
       <use xlink:href="#DejaVuSans-5b" transform="translate(63.183594 0.015625)"/>
       <use xlink:href="#DejaVuSans-Oblique-66" transform="translate(102.197266 0.015625)"/>
       <use xlink:href="#DejaVuSans-28" transform="translate(137.402344 0.015625)"/>
       <use xlink:href="#DejaVuSans-Oblique-58" transform="translate(176.416016 0.015625)"/>
       <use xlink:href="#DejaVuSans-29" transform="translate(244.921875 0.015625)"/>
       <use xlink:href="#DejaVuSans-5d" transform="translate(283.935547 0.015625)"/>
      </g>
     </g>
    </g>
    <g id="xtick_11">
     <g id="line2d_31">
      <g>
       <use xlink:href="#m52113b911b" x="446.39903" y="448.56" style="stroke: #000000; stroke-width: 0.8"/>
      </g>
     </g>
     <g id="text_44">
      <!--  -->
      <g style="fill: #999999" transform="translate(468.39903 465.678125)scale(0.12 -0.12)"/>
      <!-- $ = 0.6$ -->
      <g style="fill: #999999" transform="translate(468.39903 479.1155)scale(0.12 -0.12)">
       <use xlink:href="#DejaVuSans-3d" transform="translate(19.482422 0.78125)"/>
       <use xlink:href="#DejaVuSans-30" transform="translate(122.753906 0.78125)"/>
       <use xlink:href="#DejaVuSans-2e" transform="translate(186.376953 0.78125)"/>
       <use xlink:href="#DejaVuSans-36" transform="translate(218.164062 0.78125)"/>
      </g>
     </g>
    </g>
   </g>
   <g id="patch_26">
    <path d="M 72 448.56 
L 518.4 448.56 
" style="fill: none; stroke: #000000; stroke-width: 0.8; stroke-linejoin: miter; stroke-linecap: square"/>
   </g>
  </g>
  <g id="axes_3">
   <g id="matplotlib.axis_4">
    <g id="xtick_12">
     <g id="line2d_32">
      <defs>
       <path id="m74874d4e13" d="M 0 0 
L 0 -3.5 
" style="stroke: #000000; stroke-width: 0.8"/>
      </defs>
      <g>
       <use xlink:href="#m74874d4e13" x="128.881073" y="60.48" style="stroke: #000000; stroke-width: 0.8"/>
      </g>
     </g>
     <g id="text_45">
      <!-- $f(x)$ -->
      <g transform="translate(118.881073 50.984375)scale(0.12 -0.12)">
       <defs>
        <path id="DejaVuSans-Oblique-78" d="M 3841 3500 
L 2234 1784 
L 3219 0 
L 2559 0 
L 1819 1388 
L 531 0 
L -166 0 
L 1556 1844 
L 641 3500 
L 1300 3500 
L 1972 2234 
L 3144 3500 
L 3841 3500 
z
" transform="scale(0.015625)"/>
       </defs>
       <use xlink:href="#DejaVuSans-Oblique-66" transform="translate(0 0.015625)"/>
       <use xlink:href="#DejaVuSans-28" transform="translate(35.205078 0.015625)"/>
       <use xlink:href="#DejaVuSans-Oblique-78" transform="translate(74.21875 0.015625)"/>
       <use xlink:href="#DejaVuSans-29" transform="translate(133.398438 0.015625)"/>
      </g>
     </g>
    </g>
    <g id="xtick_13">
     <g id="line2d_33">
      <g>
       <use xlink:href="#m74874d4e13" x="128.881078" y="60.48" style="stroke: #000000; stroke-width: 0.8"/>
      </g>
     </g>
     <g id="text_46">
      <!-- $ = 0$ -->
      <g style="fill: #999999" transform="translate(140.881078 50.984375)scale(0.12 -0.12)">
       <use xlink:href="#DejaVuSans-3d" transform="translate(19.482422 0.78125)"/>
       <use xlink:href="#DejaVuSans-30" transform="translate(122.753906 0.78125)"/>
      </g>
     </g>
    </g>
   </g>
   <g id="patch_27">
    <path d="M 72 448.56 
L 518.4 448.56 
" style="fill: none; stroke: #000000; stroke-width: 0.8; stroke-linejoin: miter; stroke-linecap: square"/>
   </g>
  </g>
 </g>
 <defs>
  <clipPath id="p627de83d41">
   <rect x="72" y="60.48" width="446.4" height="388.08"/>
  </clipPath>
 </defs>
</svg>
